<svg xmlns="http://www.w3.org/2000/svg" xmlns:xlink="http://www.w3.org/1999/xlink" width="1920" zoomAndPan="magnify" viewBox="0 0 1440 809.999993" height="1080" preserveAspectRatio="xMidYMid meet" version="1.0"><defs><clipPath id="id1"><path d="M 671.046875 0 L 934.296875 0 L 934.296875 810 L 671.046875 810 Z M 671.046875 0 " clip-rule="nonzero"/></clipPath><clipPath id="id2"><path d="M 0 0 L 909 0 L 909 629 L 0 629 Z M 0 0 " clip-rule="nonzero"/></clipPath><clipPath id="id3"><path d="M 1060.335938 207.25 L 62.589844 984.082031 L -452.070312 323.0625 L 545.671875 -453.769531 Z M 1060.335938 207.25 " clip-rule="nonzero"/></clipPath><clipPath id="id4"><path d="M 545.816406 -453.582031 L -451.925781 323.25 L 62.734375 984.269531 L 1060.480469 207.4375 Z M 545.816406 -453.582031 " clip-rule="nonzero"/></clipPath></defs><rect x="-144" width="1728" fill="#ffffff" y="-80.999999" height="971.999992" fill-opacity="1"/><rect x="-144" width="1728" fill="#fcf8eb" y="-80.999999" height="971.999992" fill-opacity="1"/><rect x="-144" width="1728" fill="#ffffff" y="-80.999999" height="971.999992" fill-opacity="1"/><rect x="-144" width="1728" fill="#fcf8eb" y="-80.999999" height="971.999992" fill-opacity="1"/><g clip-path="url(#id1)"><path fill="#addcf4" d="M 1239.289062 259.558594 L 1239.289062 244.480469 L 1239.917969 228.148438 C 1240.546875 218.09375 1241.175781 207.414062 1241.175781 197.363281 L 1241.175781 186.054688 C 1241.175781 179.773438 1241.175781 172.863281 1241.175781 166.582031 L 1241.175781 106.269531 C 1241.175781 97.476562 1241.175781 88.050781 1241.804688 79.257812 L 1242.433594 66.0625 L 1242.433594 53.5 C 1242.433594 45.332031 1242.433594 37.164062 1241.804688 28.996094 C 1241.175781 20.832031 1241.175781 12.664062 1241.175781 4.496094 C 1241.175781 -3.671875 1240.546875 -11.210938 1240.546875 -19.375 C 1240.546875 -27.542969 1240.546875 -35.082031 1240.546875 -42.621094 C 1240.546875 -48.273438 1240.546875 -53.929688 1240.546875 -59.582031 C 1240.546875 -65.238281 1240.546875 -71.519531 1239.917969 -77.175781 C 1239.917969 -79.058594 1241.175781 -80.316406 1242.433594 -80.316406 C 1244.320312 -80.316406 1245.574219 -79.058594 1245.574219 -77.800781 C 1246.203125 -69.636719 1246.832031 -62.097656 1246.832031 -54.558594 L 1246.832031 -29.429688 C 1246.832031 -19.375 1246.832031 -9.324219 1247.460938 0.726562 C 1248.089844 10.777344 1248.089844 22.085938 1248.089844 33.394531 L 1248.089844 48.472656 C 1248.089844 53.5 1248.089844 59.152344 1248.089844 64.179688 L 1247.460938 79.257812 L 1246.832031 96.21875 C 1246.832031 106.269531 1246.832031 116.949219 1246.832031 127 C 1246.832031 137.054688 1246.832031 147.734375 1246.832031 157.785156 L 1246.832031 187.941406 C 1246.832031 192.964844 1246.832031 197.992188 1246.832031 203.019531 C 1246.832031 208.042969 1246.203125 214.324219 1246.203125 219.351562 C 1245.574219 230.03125 1245.574219 240.082031 1244.949219 250.761719 C 1244.320312 261.445312 1244.949219 270.867188 1244.949219 280.917969 C 1245.574219 298.507812 1245.574219 316.101562 1246.203125 333.0625 C 1246.203125 341.855469 1246.203125 350.652344 1246.203125 359.449219 C 1246.203125 368.242188 1245.574219 377.039062 1245.574219 385.832031 C 1245.574219 395.886719 1246.203125 405.9375 1246.203125 415.988281 C 1246.203125 421.015625 1246.203125 426.667969 1246.832031 431.695312 L 1247.460938 446.144531 L 1248.71875 461.851562 C 1248.71875 466.875 1248.71875 471.902344 1249.347656 476.300781 C 1249.976562 486.351562 1250.605469 496.402344 1250.605469 506.453125 C 1250.605469 516.507812 1251.234375 526.558594 1251.234375 535.980469 C 1251.234375 545.40625 1251.863281 556.710938 1251.863281 567.394531 C 1251.863281 578.074219 1252.492188 588.753906 1253.121094 598.804688 L 1253.75 613.882812 L 1254.378906 628.332031 C 1254.378906 633.355469 1255.007812 639.011719 1255.007812 644.039062 L 1255.007812 691.15625 C 1255.007812 696.179688 1255.007812 701.207031 1255.007812 706.230469 L 1255.007812 722.566406 L 1255.007812 721.9375 L 1255.007812 728.847656 C 1255.007812 731.363281 1255.007812 733.875 1255.636719 736.386719 L 1256.265625 751.464844 C 1256.894531 761.515625 1257.519531 770.941406 1257.519531 780.992188 L 1258.148438 795.441406 L 1258.148438 828.109375 L 1258.148438 827.480469 C 1258.148438 841.300781 1260.035156 855.125 1261.292969 868.945312 C 1261.921875 875.226562 1262.550781 882.136719 1262.550781 888.417969 L 1262.550781 907.894531 C 1262.550781 909.152344 1262.550781 910.40625 1262.550781 911.664062 C 1262.550781 913.550781 1262.550781 914.804688 1263.179688 916.691406 C 1263.179688 917.945312 1263.179688 918.574219 1263.808594 919.832031 C 1263.808594 921.714844 1262.550781 922.972656 1260.664062 922.972656 C 1259.40625 922.972656 1258.148438 921.714844 1258.148438 919.832031 C 1258.148438 917.945312 1257.519531 915.433594 1257.519531 913.550781 C 1257.519531 910.40625 1257.519531 906.636719 1257.519531 903.496094 C 1257.519531 897.84375 1258.148438 892.1875 1258.148438 887.164062 C 1258.148438 882.765625 1257.519531 878.367188 1257.519531 873.96875 L 1256.265625 858.894531 L 1255.007812 844.445312 C 1255.007812 840.046875 1254.378906 835.648438 1254.378906 831.25 C 1254.378906 826.851562 1254.378906 822.457031 1254.378906 817.429688 L 1254.378906 809.890625 C 1254.378906 808.632812 1254.378906 807.378906 1254.378906 806.121094 L 1254.378906 802.980469 C 1254.378906 793.554688 1254.378906 784.132812 1253.75 774.710938 C 1253.121094 765.285156 1252.492188 755.863281 1252.492188 745.8125 L 1251.863281 731.988281 C 1251.863281 726.964844 1251.863281 722.566406 1251.863281 717.539062 C 1251.863281 707.488281 1251.863281 697.4375 1251.863281 686.757812 L 1251.863281 687.386719 L 1251.863281 649.0625 C 1251.863281 639.011719 1251.234375 628.960938 1250.605469 619.535156 C 1249.976562 610.113281 1249.976562 598.804688 1249.347656 588.753906 C 1248.71875 578.699219 1248.71875 567.394531 1248.089844 557.339844 L 1245.574219 527.1875 C 1245.574219 517.132812 1245.574219 507.082031 1244.949219 497.03125 C 1244.320312 486.980469 1243.691406 476.925781 1243.691406 466.875 C 1243.691406 456.824219 1243.0625 447.398438 1242.433594 437.347656 C 1241.804688 427.296875 1241.804688 416.617188 1241.175781 405.9375 C 1241.175781 396.511719 1240.546875 387.089844 1241.175781 378.292969 C 1241.804688 369.5 1241.804688 359.449219 1241.804688 350.023438 L 1241.804688 350.652344 C 1241.804688 330.550781 1241.175781 309.816406 1241.175781 289.714844 L 1241.175781 270.867188 Z M 670.945312 400.910156 C 670.945312 405.308594 670.945312 409.078125 671.574219 412.847656 C 671.574219 417.875 672.203125 422.898438 672.203125 427.925781 C 672.203125 432.949219 673.460938 436.71875 673.460938 441.746094 C 673.460938 446.773438 675.34375 451.796875 675.972656 456.824219 C 676.601562 461.851562 677.859375 466.875 679.117188 471.902344 C 680.375 476.925781 681.632812 481.953125 682.890625 486.980469 L 687.289062 502.683594 C 688.546875 507.082031 689.804688 512.109375 691.0625 516.507812 C 692.320312 520.902344 693.578125 525.929688 694.835938 530.957031 C 695.464844 533.46875 696.09375 535.980469 697.351562 538.492188 L 699.863281 544.777344 C 703.636719 554.199219 708.039062 563.625 712.4375 573.046875 L 718.726562 586.867188 C 720.613281 591.894531 723.125 596.292969 725.640625 600.6875 C 730.671875 610.113281 736.328125 618.90625 741.988281 627.703125 L 750.160156 641.523438 C 753.304688 646.550781 756.449219 650.949219 759.589844 655.972656 C 760.847656 658.488281 762.734375 660.371094 764.621094 662.882812 C 766.507812 665.398438 767.765625 666.652344 769.023438 669.167969 L 779.082031 681.730469 C 781.59375 685.5 784.738281 689.269531 787.253906 693.039062 C 789.769531 696.808594 792.285156 700.578125 794.796875 704.347656 C 797.3125 708.117188 800.457031 711.257812 803.601562 714.398438 C 804.859375 715.65625 806.742188 717.539062 808.628906 718.796875 C 810.515625 720.054688 811.144531 720.679688 812.402344 721.9375 C 813.660156 723.195312 814.289062 724.449219 815.546875 725.707031 C 818.058594 728.847656 819.945312 731.988281 822.460938 735.132812 C 825.605469 738.898438 829.375 742.667969 832.519531 747.066406 C 835.664062 751.464844 839.4375 753.976562 843.207031 757.746094 L 854.523438 768.425781 C 858.296875 772.195312 862.070312 775.335938 865.839844 779.105469 C 873.386719 786.019531 880.929688 792.929688 889.101562 799.210938 C 892.875 802.351562 896.648438 805.492188 900.417969 808.003906 C 904.191406 810.519531 907.964844 813.660156 912.363281 816.171875 C 921.167969 821.828125 929.96875 827.480469 938.769531 833.136719 C 947.574219 838.789062 955.746094 843.1875 964.546875 848.210938 C 973.347656 853.238281 983.410156 858.265625 992.210938 863.289062 C 997.238281 865.804688 1001.640625 868.316406 1006.671875 870.199219 C 1011.699219 872.085938 1016.101562 874.597656 1021.128906 877.113281 C 1030.5625 881.507812 1039.992188 885.90625 1049.421875 889.046875 C 1054.453125 890.933594 1059.480469 892.816406 1064.511719 894.074219 C 1069.539062 895.332031 1073.941406 897.214844 1078.34375 898.472656 C 1087.773438 901.613281 1097.832031 904.125 1107.261719 906.636719 C 1112.292969 907.894531 1117.320312 908.523438 1122.351562 909.78125 L 1136.8125 912.292969 C 1146.871094 914.175781 1157.558594 916.0625 1167.617188 917.316406 C 1177.675781 918.574219 1188.363281 919.832031 1198.421875 921.714844 C 1203.453125 922.34375 1208.484375 922.972656 1214.140625 924.230469 C 1218.542969 924.855469 1223.570312 924.855469 1227.972656 925.484375 C 1232.375 926.113281 1238.03125 926.113281 1242.433594 926.742188 C 1246.832031 927.371094 1251.863281 927.371094 1256.265625 928 C 1257.519531 928 1258.777344 928.625 1260.035156 928.625 L 1261.292969 929.253906 C 1262.550781 929.882812 1264.4375 929.253906 1265.066406 927.371094 C 1265.066406 927.371094 1265.066406 926.742188 1265.066406 926.742188 C 1265.695312 925.484375 1265.066406 923.601562 1263.179688 922.972656 C 1260.664062 922.34375 1258.148438 921.714844 1256.265625 921.714844 C 1251.863281 921.085938 1246.832031 921.085938 1242.433594 920.460938 C 1233.003906 919.832031 1223.570312 919.203125 1214.769531 917.945312 L 1214.140625 917.945312 C 1209.113281 917.316406 1204.082031 916.691406 1199.050781 915.433594 C 1194.023438 914.175781 1188.363281 914.175781 1182.707031 913.546875 C 1172.648438 912.292969 1162.585938 911.035156 1152.527344 909.152344 C 1147.5 908.523438 1142.46875 907.265625 1137.441406 906.636719 C 1132.410156 906.011719 1127.378906 904.753906 1122.351562 903.496094 C 1117.320312 902.242188 1112.292969 901.613281 1107.890625 900.355469 C 1103.488281 899.097656 1097.832031 897.84375 1092.800781 896.585938 C 1084 894.074219 1075.199219 890.933594 1066.398438 888.417969 C 1061.996094 887.164062 1056.964844 885.277344 1052.566406 883.394531 C 1048.164062 881.507812 1043.136719 879.625 1038.734375 877.738281 C 1031.191406 874.597656 1024.273438 871.457031 1017.359375 867.6875 L 1006.042969 862.660156 C 1002.269531 860.777344 998.496094 858.890625 994.726562 857.007812 C 980.894531 850.097656 967.0625 842.558594 953.859375 835.019531 C 945.058594 829.367188 936.253906 824.339844 926.824219 818.6875 C 922.425781 816.171875 918.023438 813.03125 913.621094 809.890625 C 909.222656 806.75 905.449219 804.238281 901.675781 801.09375 C 890.359375 792.300781 879.671875 783.503906 869.613281 774.082031 C 864.585938 769.054688 859.554688 764.03125 854.523438 759.003906 C 849.496094 753.976562 844.464844 748.953125 839.4375 743.925781 C 834.40625 738.898438 829.375 733.246094 824.976562 727.59375 L 819.945312 721.308594 C 818.6875 720.054688 818.058594 718.167969 816.804688 716.910156 C 815.546875 715.65625 814.289062 714.398438 813.03125 713.144531 C 811.144531 711.886719 809.257812 710 807.371094 708.117188 C 805.484375 706.230469 804.230469 704.976562 802.972656 703.089844 L 799.199219 698.691406 C 794.796875 692.410156 790.398438 686.128906 785.367188 679.847656 C 780.339844 673.5625 775.308594 666.652344 770.277344 659.742188 L 765.25 652.832031 C 763.363281 650.949219 762.105469 648.433594 760.847656 645.921875 C 757.707031 640.894531 754.5625 635.871094 751.417969 630.84375 C 745.761719 621.421875 740.101562 612.625 734.441406 603.203125 C 731.300781 598.175781 728.785156 593.148438 726.269531 587.496094 L 718.726562 571.789062 L 711.808594 555.457031 C 709.925781 550.429688 707.410156 545.40625 705.523438 541.007812 C 704.265625 537.867188 703.007812 534.722656 701.75 531.582031 C 700.492188 528.441406 699.863281 524.671875 698.605469 520.902344 C 696.722656 513.992188 695.464844 507.082031 693.578125 500.171875 C 691.691406 493.261719 689.804688 485.722656 687.917969 478.8125 C 684.777344 464.992188 682.261719 451.167969 679.746094 436.71875 C 679.117188 431.066406 678.488281 424.785156 678.488281 419.128906 C 678.488281 413.476562 677.859375 406.566406 677.859375 400.28125 C 677.859375 395.257812 677.859375 389.601562 678.488281 384.578125 C 679.117188 379.550781 679.117188 374.523438 679.746094 369.5 C 680.375 359.449219 681.632812 349.394531 682.890625 339.34375 L 683.519531 334.945312 L 683.519531 335.574219 C 684.777344 324.265625 686.660156 313.585938 688.546875 302.277344 C 690.433594 290.96875 692.949219 280.917969 695.464844 270.867188 C 696.722656 267.097656 697.351562 263.328125 698.605469 258.929688 C 699.863281 255.160156 701.121094 251.390625 702.378906 247.621094 L 704.894531 237.570312 C 706.152344 233.800781 707.410156 230.03125 708.039062 226.261719 C 710.550781 218.09375 713.066406 209.300781 716.210938 201.132812 C 719.355469 192.964844 721.242188 186.683594 723.753906 179.144531 C 728.15625 168.464844 733.1875 158.414062 738.214844 148.363281 L 745.761719 133.914062 C 748.273438 129.515625 750.789062 125.117188 753.304688 120.71875 C 756.449219 115.066406 760.21875 109.410156 763.363281 103.757812 L 772.164062 88.679688 L 772.164062 89.308594 C 774.679688 84.910156 777.195312 81.140625 779.710938 76.742188 C 782.222656 72.34375 784.738281 69.203125 787.253906 65.433594 L 787.882812 64.804688 C 792.914062 58.523438 798.570312 52.871094 804.230469 47.214844 C 808 43.445312 811.773438 40.304688 815.546875 37.164062 C 819.316406 34.023438 823.089844 30.882812 826.234375 28.367188 C 834.40625 22.085938 842.578125 15.804688 850.753906 9.523438 C 856.410156 5.125 861.441406 1.355469 867.097656 -3.042969 C 872.757812 -7.441406 877.15625 -10.582031 882.1875 -14.351562 L 884.074219 -15.605469 C 892.875 -21.890625 901.675781 -27.542969 911.109375 -33.199219 C 918.652344 -37.59375 926.195312 -41.992188 933.742188 -45.761719 C 938.140625 -48.273438 941.914062 -50.160156 946.316406 -52.671875 C 950.714844 -55.1875 954.488281 -56.441406 958.890625 -58.328125 C 962.03125 -59.582031 965.175781 -60.839844 968.320312 -62.097656 L 977.75 -65.867188 C 984.035156 -68.378906 990.324219 -70.890625 997.238281 -73.40625 C 1002.898438 -75.289062 1007.925781 -77.800781 1013.585938 -79.058594 C 1019.242188 -80.316406 1024.273438 -82.199219 1029.304688 -84.085938 L 1044.390625 -87.226562 C 1051.308594 -89.109375 1058.222656 -90.996094 1065.140625 -92.25 C 1072.054688 -93.507812 1078.96875 -94.136719 1085.886719 -95.394531 C 1087.773438 -95.394531 1089.660156 -96.019531 1092.171875 -96.019531 C 1095.945312 -96.648438 1099.71875 -96.648438 1103.488281 -97.277344 C 1107.261719 -97.90625 1110.40625 -98.535156 1114.179688 -98.535156 C 1117.949219 -98.535156 1121.09375 -99.164062 1124.238281 -99.164062 L 1133.667969 -99.789062 C 1136.8125 -99.789062 1139.953125 -100.417969 1143.726562 -100.417969 C 1147.5 -100.417969 1150.015625 -101.046875 1153.785156 -101.046875 C 1160.703125 -101.675781 1168.246094 -102.304688 1175.789062 -102.929688 C 1185.222656 -103.558594 1194.652344 -103.558594 1204.710938 -104.1875 C 1209.113281 -104.1875 1213.511719 -104.1875 1217.914062 -104.1875 L 1224.199219 -104.1875 C 1225.457031 -104.816406 1226.714844 -104.816406 1227.972656 -104.816406 C 1229.230469 -104.816406 1231.746094 -104.816406 1234.257812 -104.816406 C 1235.515625 -104.816406 1236.144531 -104.816406 1237.402344 -104.816406 C 1238.03125 -104.816406 1239.289062 -104.816406 1239.917969 -104.816406 C 1241.804688 -104.816406 1243.0625 -106.074219 1243.0625 -107.957031 C 1242.433594 -109.214844 1240.546875 -110.46875 1239.289062 -110.46875 C 1236.773438 -110.46875 1234.886719 -110.46875 1232.375 -111.097656 C 1226.085938 -111.097656 1220.429688 -111.097656 1214.140625 -111.097656 C 1204.710938 -111.097656 1195.28125 -110.46875 1185.222656 -110.46875 C 1175.160156 -110.46875 1165.730469 -109.214844 1155.671875 -108.585938 C 1150.640625 -107.957031 1146.242188 -107.328125 1141.210938 -107.328125 C 1136.183594 -107.328125 1132.410156 -106.699219 1127.378906 -106.699219 C 1122.351562 -106.699219 1117.949219 -104.816406 1113.550781 -104.816406 L 1098.460938 -102.929688 C 1095.316406 -102.929688 1092.800781 -102.304688 1090.289062 -101.675781 C 1089.03125 -101.675781 1087.773438 -101.675781 1087.144531 -101.046875 C 1086.515625 -101.046875 1086.515625 -101.046875 1085.886719 -101.046875 L 1082.113281 -100.417969 C 1077.714844 -99.789062 1073.3125 -99.164062 1068.910156 -98.535156 C 1064.511719 -97.90625 1060.109375 -97.277344 1055.707031 -96.019531 C 1051.308594 -94.765625 1046.90625 -93.507812 1042.507812 -92.878906 L 1042.507812 -92.25 C 1034.332031 -89.738281 1025.53125 -87.855469 1017.359375 -85.339844 C 1013.585938 -84.085938 1009.183594 -82.828125 1005.414062 -81.570312 C 1001.640625 -80.316406 996.609375 -78.429688 992.210938 -76.546875 C 987.808594 -74.660156 982.152344 -72.777344 977.121094 -70.890625 C 974.605469 -69.636719 972.089844 -69.007812 969.578125 -67.75 C 967.0625 -66.492188 964.546875 -65.867188 962.03125 -64.609375 C 957.003906 -62.726562 951.972656 -60.839844 947.574219 -58.328125 C 943.171875 -55.8125 937.511719 -53.300781 932.484375 -50.160156 L 918.023438 -41.992188 C 913.621094 -39.480469 909.851562 -37.59375 905.449219 -35.082031 C 901.046875 -32.570312 896.019531 -29.429688 891.617188 -26.289062 C 887.21875 -23.144531 884.074219 -20.632812 879.671875 -18.121094 C 872.128906 -12.464844 863.957031 -6.183594 856.410156 0.0976562 C 850.125 5.125 843.207031 10.148438 836.921875 15.175781 C 830.632812 20.203125 824.347656 25.226562 818.058594 30.253906 C 814.917969 32.765625 811.773438 35.28125 808.628906 38.421875 C 805.484375 41.5625 802.972656 43.445312 799.828125 46.585938 C 794.167969 52.242188 789.140625 57.894531 784.109375 63.550781 C 774.050781 77.371094 765.25 91.191406 757.078125 106.269531 L 752.046875 114.4375 C 749.53125 118.835938 747.015625 122.605469 744.503906 127 C 741.988281 131.398438 740.101562 135.796875 738.214844 140.195312 C 733.816406 148.988281 729.414062 157.785156 725.011719 167.207031 C 722.496094 172.234375 720.613281 176.632812 718.726562 181.65625 C 716.839844 186.054688 715.582031 191.082031 713.695312 195.480469 C 710.550781 205.53125 707.410156 215.582031 704.265625 225.007812 L 699.863281 238.828125 L 695.464844 252.648438 C 692.320312 262.070312 689.804688 271.496094 687.917969 280.917969 C 686.035156 290.34375 683.519531 301.023438 681.632812 310.445312 C 680.375 315.472656 679.746094 320.496094 679.117188 325.523438 C 678.488281 330.550781 677.859375 335.574219 677.230469 341.230469 C 676.601562 345.625 675.972656 350.023438 675.972656 355.050781 L 674.714844 370.128906 L 673.460938 385.207031 C 672.832031 390.230469 672.832031 395.257812 672.832031 399.65625 L 672.832031 400.910156 Z M 1237.402344 -107.328125 C 1237.402344 -106.074219 1238.660156 -104.816406 1239.917969 -104.816406 C 1239.917969 -104.816406 1240.546875 -104.816406 1240.546875 -104.816406 L 1240.546875 -100.417969 C 1240.546875 -99.164062 1240.546875 -97.277344 1240.546875 -96.019531 C 1240.546875 -92.878906 1241.175781 -90.367188 1241.175781 -87.226562 C 1241.175781 -84.085938 1241.175781 -79.6875 1240.546875 -75.289062 L 1240.546875 -63.980469 C 1240.546875 -62.097656 1241.175781 -60.839844 1243.0625 -60.210938 C 1244.949219 -59.582031 1246.203125 -60.839844 1246.832031 -62.097656 C 1246.832031 -62.726562 1246.832031 -63.980469 1246.832031 -64.609375 L 1246.832031 -65.238281 C 1246.832031 -71.519531 1247.460938 -77.175781 1247.460938 -83.457031 C 1247.460938 -86.597656 1247.460938 -89.109375 1246.832031 -92.25 C 1246.832031 -94.765625 1246.203125 -97.90625 1246.203125 -100.417969 L 1246.203125 -103.558594 C 1246.203125 -104.1875 1246.203125 -105.445312 1246.203125 -106.074219 C 1246.203125 -106.699219 1245.574219 -107.328125 1245.574219 -108.585938 C 1245.574219 -109.214844 1244.949219 -109.84375 1244.320312 -109.84375 C 1243.0625 -110.46875 1241.804688 -110.46875 1240.546875 -110.46875 C 1238.660156 -110.46875 1237.402344 -109.214844 1237.402344 -107.328125 Z M 1237.402344 -107.328125 " fill-opacity="1" fill-rule="nonzero"/></g><g clip-path="url(#id2)"><g clip-path="url(#id3)"><g clip-path="url(#id4)"><path fill="#addcf4" d="M 571.652344 -16.265625 C 553.675781 -2.617188 536.878906 12.550781 521.484375 29.074219 C 497.550781 54.335938 469.96875 75.8125 439.777344 93.039062 C 411.757812 108.574219 381.828125 118.972656 351.148438 127.507812 C 328.796875 133.75 307.742188 129.558594 288.015625 119.453125 C 262.949219 106.523438 238.582031 92.703125 214.265625 78.496094 C 192.121094 65.738281 171.207031 50.972656 147.472656 41.546875 C 114.464844 27.824219 78.417969 22.75 42.8125 26.75 C 16.71875 29.972656 -9.28125 32.425781 -35.546875 35.433594 C -54.445312 37.589844 -72.164062 44.40625 -89.082031 52.695312 C -130.449219 73.042969 -165.632812 100.4375 -193.253906 137.988281 C -225.824219 182.183594 -254.601562 229.007812 -279.367188 278.292969 C -297.648438 314.851562 -306.292969 354.375 -311.511719 394.71875 C -314.640625 416.691406 -315.0625 438.996094 -312.515625 461.085938 C -309.535156 485.972656 -300.953125 509.988281 -286.867188 530.769531 C -271.816406 553.238281 -256.0625 574.8125 -233.699219 590.539062 C -190.253906 621.25 -142.253906 635.855469 -89.367188 625.375 C -69.28125 621.601562 -49.539062 614.253906 -30.351562 606.636719 C 12.128906 589.960938 56.882812 580.234375 102.484375 577.867188 C 136.859375 575.871094 170.707031 581.261719 204.628906 587.644531 C 241.59375 594.792969 278.246094 602.886719 315.449219 608.109375 C 369.046875 615.566406 423.101562 617.785156 476.738281 609.164062 C 507.371094 604.152344 537.132812 596.675781 564.453125 582.03125 C 611.949219 556.566406 645.246094 519.128906 658.15625 465.820312 C 665.601562 435.953125 671.5 405.894531 678.339844 376.148438 C 684.242188 349.226562 690.3125 322.523438 702.636719 297.578125 C 715.996094 269.039062 736.695312 244.546875 762.300781 226.355469 C 781.824219 212.902344 802.023438 200.3125 821.667969 187.460938 C 843.484375 172.917969 864.117188 156.851562 880.980469 136.394531 C 911.164062 100.335938 914.957031 60.40625 898.109375 17.707031 C 882.371094 -21.320312 853.628906 -48.828125 818.179688 -69.714844 C 800.816406 -79.917969 781.910156 -87.175781 762.402344 -91.175781 C 735.601562 -96.472656 710.085938 -91.605469 684.816406 -82.398438 C 656.867188 -72.148438 631.644531 -57.046875 607.222656 -40.472656 Z M 571.652344 -16.265625 " fill-opacity="1" fill-rule="nonzero"/></g></g></g></svg>